<svg viewBox="0 0 26 26" xmlns="http://www.w3.org/2000/svg" xmlns:xlink="http://www.w3.org/1999/xlink"><style>:root&gt;svg{display:none}:root&gt;svg:target{display:block}</style><svg fill="none" viewBox="0 0 25 19" id="arrow-left" xmlns="http://www.w3.org/2000/svg"><path d="M24.81 8.625H4.325l6.777-6.689L9.64.47 1.9 8.11.413 9.578l1.486 1.44L9.64 18.66l1.46-1.467-6.594-6.509H24.81V8.625z" fill="#214E41"/></svg><svg fill="none" viewBox="0 0 25 19" id="arrow-right" xmlns="http://www.w3.org/2000/svg"><path d="M.414 10.503h20.487l-6.777 6.69 1.486 1.466 7.715-7.641h.026l1.46-1.44-1.46-1.467h-.026L15.61.47l-1.486 1.466 6.62 6.51H.415v2.057z" fill="#214E41"/></svg><svg fill="none" viewBox="0 0 26 26" id="linkedin" xmlns="http://www.w3.org/2000/svg"><path d="M24.08 0H1.92A1.92 1.92 0 000 1.92v22.16A1.92 1.92 0 001.92 26h22.16A1.92 1.92 0 0026 24.08V1.92A1.92 1.92 0 0024.08 0zM7.75 22.149H3.84V9.732h3.91v12.417zM5.791 8.01A2.244 2.244 0 118.05 5.77a2.212 2.212 0 01-2.258 2.24zm16.367 14.15H18.25v-6.784c0-2-.85-2.618-1.949-2.618-1.159 0-2.296.874-2.296 2.669v6.733h-3.91V9.74h3.76v1.72h.05c.378-.763 1.7-2.069 3.716-2.069 2.181 0 4.538 1.295 4.538 5.087l-.002 7.68z" fill="#fff"/></svg><svg fill="none" viewBox="0 0 26 22" id="twitter" xmlns="http://www.w3.org/2000/svg"><path d="M8.176 21.563c9.812 0 15.178-8.129 15.178-15.178 0-.23 0-.46-.015-.69A10.853 10.853 0 0026 2.936a10.66 10.66 0 01-3.064.839 5.352 5.352 0 002.345-2.95 10.687 10.687 0 01-3.387 1.294 5.34 5.34 0 00-9.09 4.865A15.145 15.145 0 011.81 1.41a5.338 5.338 0 001.65 7.12 5.287 5.287 0 01-2.421-.667v.068a5.336 5.336 0 004.28 5.229 5.325 5.325 0 01-2.409.091 5.341 5.341 0 004.984 3.705A10.7 10.7 0 010 19.166a15.103 15.103 0 008.176 2.393" fill="#FAFAFA"/></svg><svg fill="none" viewBox="0 0 26 20" id="youtube" xmlns="http://www.w3.org/2000/svg"><path d="M25.482 3.7a3.268 3.268 0 00-2.299-2.313C21.15.841 13.025.841 13.025.841S4.9.84 2.868 1.387A3.268 3.268 0 00.569 3.701C.025 5.742.025 10 .025 10s0 4.257.544 6.299a3.268 3.268 0 002.299 2.313c2.032.547 10.157.547 10.157.547s8.125 0 10.158-.547a3.267 3.267 0 002.299-2.313c.543-2.042.543-6.3.543-6.3s0-4.257-.543-6.298z" fill="#FAFAFA"/><path d="M10.367 13.866V6.134L17.163 10l-6.796 3.866z" fill="#214E41"/></svg></svg>